<svg width="36" height="36" viewBox="0 0 36 36" fill="none" xmlns="http://www.w3.org/2000/svg">
<rect width="36" height="36" rx="8" fill="#E8233A"/>
<g clip-path="url(#clip0_1_772)">
<path d="M18 26.3333C22.6024 26.3333 26.3334 22.6024 26.3334 18C26.3334 13.3976 22.6024 9.66667 18 9.66667C13.3976 9.66667 9.66669 13.3976 9.66669 18C9.66669 22.6024 13.3976 26.3333 18 26.3333Z" stroke="white" stroke-width="1.83333" stroke-linecap="round" stroke-linejoin="round"/>
<path d="M18 20.5C19.3807 20.5 20.5 19.3807 20.5 18C20.5 16.6193 19.3807 15.5 18 15.5C16.6193 15.5 15.5 16.6193 15.5 18C15.5 19.3807 16.6193 20.5 18 20.5Z" stroke="white" stroke-width="1.83333" stroke-linecap="round" stroke-linejoin="round"/>
<path d="M18 9.66667V12.1667M18 23.8333V26.3333M9.66669 18H12.1667M23.8334 18H26.3334" stroke="white" stroke-width="1.83333" stroke-linecap="round" stroke-linejoin="round"/>
<path d="M18 13.8333C18.4603 13.8333 18.8334 13.4602 18.8334 13C18.8334 12.5398 18.4603 12.1667 18 12.1667C17.5398 12.1667 17.1667 12.5398 17.1667 13C17.1667 13.4602 17.5398 13.8333 18 13.8333Z" fill="white"/>
<path d="M18 23.8333C18.4603 23.8333 18.8334 23.4602 18.8334 23C18.8334 22.5398 18.4603 22.1667 18 22.1667C17.5398 22.1667 17.1667 22.5398 17.1667 23C17.1667 23.4602 17.5398 23.8333 18 23.8333Z" fill="white"/>
<path d="M13 18.8333C13.4603 18.8333 13.8334 18.4602 13.8334 18C13.8334 17.5398 13.4603 17.1667 13 17.1667C12.5398 17.1667 12.1667 17.5398 12.1667 18C12.1667 18.4602 12.5398 18.8333 13 18.8333Z" fill="white"/>
<path d="M23 18.8333C23.4603 18.8333 23.8334 18.4602 23.8334 18C23.8334 17.5398 23.4603 17.1667 23 17.1667C22.5398 17.1667 22.1667 17.5398 22.1667 18C22.1667 18.4602 22.5398 18.8333 23 18.8333Z" fill="white"/>
</g>
<defs>
<clipPath id="clip0_1_772">
<rect width="20" height="20" fill="white" transform="translate(8 8)"/>
</clipPath>
</defs>
</svg>
