<svg width="278" height="36" viewBox="0 0 278 36" fill="none" xmlns="http://www.w3.org/2000/svg">
<rect x="8" width="36" height="36" rx="8" fill="#E8233A"/>
<g clip-path="url(#clip0_1_771)">
<path d="M26 26.3333C30.6024 26.3333 34.3334 22.6024 34.3334 18C34.3334 13.3976 30.6024 9.66667 26 9.66667C21.3976 9.66667 17.6667 13.3976 17.6667 18C17.6667 22.6024 21.3976 26.3333 26 26.3333Z" stroke="white" stroke-width="1.83333" stroke-linecap="round" stroke-linejoin="round"/>
<path d="M26 20.5C27.3807 20.5 28.5 19.3807 28.5 18C28.5 16.6193 27.3807 15.5 26 15.5C24.6193 15.5 23.5 16.6193 23.5 18C23.5 19.3807 24.6193 20.5 26 20.5Z" stroke="white" stroke-width="1.83333" stroke-linecap="round" stroke-linejoin="round"/>
<path d="M26 9.66667V12.1667M26 23.8333V26.3333M17.6667 18H20.1667M31.8334 18H34.3334" stroke="white" stroke-width="1.83333" stroke-linecap="round" stroke-linejoin="round"/>
<path d="M26 13.8333C26.4603 13.8333 26.8334 13.4602 26.8334 13C26.8334 12.5398 26.4603 12.1667 26 12.1667C25.5398 12.1667 25.1667 12.5398 25.1667 13C25.1667 13.4602 25.5398 13.8333 26 13.8333Z" fill="white"/>
<path d="M26 23.8333C26.4603 23.8333 26.8334 23.4602 26.8334 23C26.8334 22.5398 26.4603 22.1667 26 22.1667C25.5398 22.1667 25.1667 22.5398 25.1667 23C25.1667 23.4602 25.5398 23.8333 26 23.8333Z" fill="white"/>
<path d="M21 18.8333C21.4603 18.8333 21.8334 18.4602 21.8334 18C21.8334 17.5398 21.4603 17.1667 21 17.1667C20.5398 17.1667 20.1667 17.5398 20.1667 18C20.1667 18.4602 20.5398 18.8333 21 18.8333Z" fill="white"/>
<path d="M31 18.8333C31.4603 18.8333 31.8334 18.4602 31.8334 18C31.8334 17.5398 31.4603 17.1667 31 17.1667C30.5398 17.1667 30.1667 17.5398 30.1667 18C30.1667 18.4602 30.5398 18.8333 31 18.8333Z" fill="white"/>
</g>
<path d="M59.528 17.68C58.58 17.68 57.854 17.41 57.35 16.87C56.858 16.33 56.612 15.568 56.612 14.584V7.816C56.612 6.832 56.858 6.07 57.35 5.53C57.854 4.99 58.58 4.72 59.528 4.72C60.476 4.72 61.196 4.99 61.688 5.53C62.192 6.07 62.444 6.832 62.444 7.816V9.148H60.572V7.69C60.572 6.91 60.242 6.52 59.582 6.52C58.922 6.52 58.592 6.91 58.592 7.69V14.728C58.592 15.496 58.922 15.88 59.582 15.88C60.242 15.88 60.572 15.496 60.572 14.728V12.802H62.444V14.584C62.444 15.568 62.192 16.33 61.688 16.87C61.196 17.41 60.476 17.68 59.528 17.68ZM65.6286 4.9H67.6086V17.5H65.6286V4.9ZM71.0915 4.9H73.5755L75.5015 12.442H75.5375V4.9H77.3015V17.5H75.2675L72.8915 8.302H72.8555V17.5H71.0915V4.9ZM80.7732 4.9H86.1732V6.7H82.7532V10.03H85.4712V11.83H82.7532V15.7H86.1732V17.5H80.7732V4.9ZM89.3122 4.9H92.1382L93.3982 13.918H93.4342L94.6942 4.9H97.5202V17.5H95.6482V7.96H95.6122L94.1722 17.5H92.5162L91.0762 7.96H91.0402V17.5H89.3122V4.9ZM102.528 4.9H105.21L107.262 17.5H105.282L104.922 14.998V15.034H102.672L102.312 17.5H100.476L102.528 4.9ZM104.688 13.324L103.806 7.096H103.77L102.906 13.324H104.688Z" fill="#E8E6DF"/>
<path d="M56.451 22.8H57.661V29.4H59.652V30.5H56.451V22.8ZM63.2323 22.8H64.4423V30.5H63.2323V22.8ZM68.3485 22.8H70.1745C70.7978 22.8 71.2525 22.9467 71.5385 23.24C71.8245 23.526 71.9675 23.9697 71.9675 24.571V24.879C71.9675 25.275 71.9015 25.5977 71.7695 25.847C71.6448 26.0963 71.4505 26.276 71.1865 26.386V26.408C71.7878 26.6133 72.0885 27.1487 72.0885 28.014V28.674C72.0885 29.268 71.9308 29.7227 71.6155 30.038C71.3075 30.346 70.8528 30.5 70.2515 30.5H68.3485V22.8ZM70.0315 25.935C70.2735 25.935 70.4531 25.8727 70.5705 25.748C70.6951 25.6233 70.7575 25.4143 70.7575 25.121V24.692C70.7575 24.4133 70.7061 24.2117 70.6035 24.087C70.5081 23.9623 70.3541 23.9 70.1415 23.9H69.5585V25.935H70.0315ZM70.2515 29.4C70.4641 29.4 70.6218 29.345 70.7245 29.235C70.8271 29.1177 70.8785 28.9197 70.8785 28.641V27.97C70.8785 27.618 70.8161 27.376 70.6915 27.244C70.5741 27.1047 70.3761 27.035 70.0975 27.035H69.5585V29.4H70.2515ZM75.7957 22.8H77.5887C78.2121 22.8 78.6667 22.9467 78.9527 23.24C79.2387 23.526 79.3817 23.9697 79.3817 24.571V25.044C79.3817 25.8433 79.1177 26.3493 78.5897 26.562V26.584C78.8831 26.672 79.0884 26.8517 79.2057 27.123C79.3304 27.3943 79.3927 27.7573 79.3927 28.212V29.565C79.3927 29.785 79.4001 29.9647 79.4147 30.104C79.4294 30.236 79.4661 30.368 79.5247 30.5H78.2927C78.2487 30.3753 78.2194 30.258 78.2047 30.148C78.1901 30.038 78.1827 29.84 78.1827 29.554V28.146C78.1827 27.794 78.1241 27.5483 78.0067 27.409C77.8967 27.2697 77.7024 27.2 77.4237 27.2H77.0057V30.5H75.7957V22.8ZM77.4457 26.1C77.6877 26.1 77.8674 26.0377 77.9847 25.913C78.1094 25.7883 78.1717 25.5793 78.1717 25.286V24.692C78.1717 24.4133 78.1204 24.2117 78.0177 24.087C77.9224 23.9623 77.7684 23.9 77.5557 23.9H77.0057V26.1H77.4457ZM84.1673 22.8H85.8063L87.0603 30.5H85.8503L85.6303 28.971V28.993H84.2553L84.0353 30.5H82.9133L84.1673 22.8ZM85.4873 27.948L84.9483 24.142H84.9263L84.3982 27.948H85.4873ZM90.6473 22.8H92.4403C93.0636 22.8 93.5183 22.9467 93.8043 23.24C94.0903 23.526 94.2333 23.9697 94.2333 24.571V25.044C94.2333 25.8433 93.9693 26.3493 93.4413 26.562V26.584C93.7346 26.672 93.94 26.8517 94.0573 27.123C94.182 27.3943 94.2443 27.7573 94.2443 28.212V29.565C94.2443 29.785 94.2516 29.9647 94.2663 30.104C94.281 30.236 94.3176 30.368 94.3763 30.5H93.1443C93.1003 30.3753 93.071 30.258 93.0563 30.148C93.0416 30.038 93.0343 29.84 93.0343 29.554V28.146C93.0343 27.794 92.9756 27.5483 92.8583 27.409C92.7483 27.2697 92.554 27.2 92.2753 27.2H91.8573V30.5H90.6473V22.8ZM92.2973 26.1C92.5393 26.1 92.719 26.0377 92.8363 25.913C92.961 25.7883 93.0233 25.5793 93.0233 25.286V24.692C93.0233 24.4133 92.972 24.2117 92.8693 24.087C92.774 23.9623 92.62 23.9 92.4073 23.9H91.8573V26.1H92.2973ZM99.0229 27.222L97.5599 22.8H98.8469L99.6719 25.627H99.6939L100.519 22.8H101.696L100.233 27.222V30.5H99.0229V27.222Z" fill="#E8233A"/>
<defs>
<clipPath id="clip0_1_771">
<rect width="20" height="20" fill="white" transform="translate(16 8)"/>
</clipPath>
</defs>
</svg>
